<mxfile host="Electron" agent="Mozilla/5.0 (Macintosh; Intel Mac OS X 10_15_7) AppleWebKit/537.36 (KHTML, like Gecko) draw.io/24.7.5 Chrome/126.0.6478.183 Electron/31.3.0 Safari/537.36" version="24.7.5">
  <diagram name="Page-1" id="fzigwdsPvLUFHeypnSTY">
    <mxGraphModel dx="1026" dy="658" grid="1" gridSize="10" guides="1" tooltips="1" connect="1" arrows="1" fold="1" page="1" pageScale="1" pageWidth="850" pageHeight="1100" math="0" shadow="0">
      <root>
        <mxCell id="0" />
        <mxCell id="1" parent="0" />
        <mxCell id="axlTO_v4iN-88vhWcISZ-1" value="2" style="ellipse;whiteSpace=wrap;html=1;fontSize=22;" vertex="1" parent="1">
          <mxGeometry x="40" y="240" width="50" height="50" as="geometry" />
        </mxCell>
        <mxCell id="axlTO_v4iN-88vhWcISZ-11" style="rounded=0;orthogonalLoop=1;jettySize=auto;html=1;exitX=1;exitY=1;exitDx=0;exitDy=0;entryX=0.5;entryY=0;entryDx=0;entryDy=0;" edge="1" parent="1" source="axlTO_v4iN-88vhWcISZ-2" target="axlTO_v4iN-88vhWcISZ-9">
          <mxGeometry relative="1" as="geometry" />
        </mxCell>
        <mxCell id="axlTO_v4iN-88vhWcISZ-12" style="rounded=0;orthogonalLoop=1;jettySize=auto;html=1;exitX=0;exitY=1;exitDx=0;exitDy=0;entryX=0.5;entryY=0;entryDx=0;entryDy=0;" edge="1" parent="1" source="axlTO_v4iN-88vhWcISZ-2" target="axlTO_v4iN-88vhWcISZ-3">
          <mxGeometry relative="1" as="geometry" />
        </mxCell>
        <mxCell id="axlTO_v4iN-88vhWcISZ-2" value="20" style="ellipse;whiteSpace=wrap;html=1;fontSize=22;" vertex="1" parent="1">
          <mxGeometry x="170" y="70" width="50" height="50" as="geometry" />
        </mxCell>
        <mxCell id="axlTO_v4iN-88vhWcISZ-13" style="rounded=0;orthogonalLoop=1;jettySize=auto;html=1;exitX=0;exitY=1;exitDx=0;exitDy=0;entryX=0.5;entryY=0;entryDx=0;entryDy=0;" edge="1" parent="1" source="axlTO_v4iN-88vhWcISZ-3" target="axlTO_v4iN-88vhWcISZ-1">
          <mxGeometry relative="1" as="geometry" />
        </mxCell>
        <mxCell id="axlTO_v4iN-88vhWcISZ-14" style="rounded=0;orthogonalLoop=1;jettySize=auto;html=1;exitX=1;exitY=1;exitDx=0;exitDy=0;entryX=0.5;entryY=0;entryDx=0;entryDy=0;" edge="1" parent="1" source="axlTO_v4iN-88vhWcISZ-3" target="axlTO_v4iN-88vhWcISZ-4">
          <mxGeometry relative="1" as="geometry" />
        </mxCell>
        <mxCell id="axlTO_v4iN-88vhWcISZ-3" value="8" style="ellipse;whiteSpace=wrap;html=1;fontSize=22;" vertex="1" parent="1">
          <mxGeometry x="100" y="160" width="50" height="50" as="geometry" />
        </mxCell>
        <mxCell id="axlTO_v4iN-88vhWcISZ-15" style="rounded=0;orthogonalLoop=1;jettySize=auto;html=1;exitX=0;exitY=1;exitDx=0;exitDy=0;entryX=0.5;entryY=0;entryDx=0;entryDy=0;" edge="1" parent="1" source="axlTO_v4iN-88vhWcISZ-4" target="axlTO_v4iN-88vhWcISZ-5">
          <mxGeometry relative="1" as="geometry" />
        </mxCell>
        <mxCell id="axlTO_v4iN-88vhWcISZ-4" value="13" style="ellipse;whiteSpace=wrap;html=1;fontSize=22;" vertex="1" parent="1">
          <mxGeometry x="160" y="240" width="50" height="50" as="geometry" />
        </mxCell>
        <mxCell id="axlTO_v4iN-88vhWcISZ-16" style="rounded=0;orthogonalLoop=1;jettySize=auto;html=1;exitX=0;exitY=1;exitDx=0;exitDy=0;entryX=0.5;entryY=0;entryDx=0;entryDy=0;" edge="1" parent="1" source="axlTO_v4iN-88vhWcISZ-5" target="axlTO_v4iN-88vhWcISZ-6">
          <mxGeometry relative="1" as="geometry" />
        </mxCell>
        <mxCell id="axlTO_v4iN-88vhWcISZ-17" style="rounded=0;orthogonalLoop=1;jettySize=auto;html=1;exitX=1;exitY=1;exitDx=0;exitDy=0;entryX=0.5;entryY=0;entryDx=0;entryDy=0;" edge="1" parent="1" source="axlTO_v4iN-88vhWcISZ-5" target="axlTO_v4iN-88vhWcISZ-7">
          <mxGeometry relative="1" as="geometry" />
        </mxCell>
        <mxCell id="axlTO_v4iN-88vhWcISZ-5" value="10" style="ellipse;whiteSpace=wrap;html=1;fontSize=22;" vertex="1" parent="1">
          <mxGeometry x="100" y="330" width="50" height="50" as="geometry" />
        </mxCell>
        <mxCell id="axlTO_v4iN-88vhWcISZ-6" value="9" style="ellipse;whiteSpace=wrap;html=1;fontSize=22;" vertex="1" parent="1">
          <mxGeometry x="40" y="420" width="50" height="50" as="geometry" />
        </mxCell>
        <mxCell id="axlTO_v4iN-88vhWcISZ-7" value="12" style="ellipse;whiteSpace=wrap;html=1;fontSize=22;" vertex="1" parent="1">
          <mxGeometry x="150" y="420" width="50" height="50" as="geometry" />
        </mxCell>
        <mxCell id="axlTO_v4iN-88vhWcISZ-8" value="16" style="ellipse;whiteSpace=wrap;html=1;fontSize=22;" vertex="1" parent="1">
          <mxGeometry x="220" y="330" width="50" height="50" as="geometry" />
        </mxCell>
        <mxCell id="axlTO_v4iN-88vhWcISZ-9" value="25" style="ellipse;whiteSpace=wrap;html=1;fontSize=22;" vertex="1" parent="1">
          <mxGeometry x="235" y="160" width="50" height="50" as="geometry" />
        </mxCell>
        <mxCell id="axlTO_v4iN-88vhWcISZ-18" style="rounded=0;orthogonalLoop=1;jettySize=auto;html=1;exitX=1;exitY=1;exitDx=0;exitDy=0;entryX=0.5;entryY=0;entryDx=0;entryDy=0;" edge="1" parent="1" source="axlTO_v4iN-88vhWcISZ-4" target="axlTO_v4iN-88vhWcISZ-8">
          <mxGeometry relative="1" as="geometry" />
        </mxCell>
        <mxCell id="axlTO_v4iN-88vhWcISZ-19" value="2" style="ellipse;whiteSpace=wrap;html=1;fontSize=22;" vertex="1" parent="1">
          <mxGeometry x="390" y="240" width="50" height="50" as="geometry" />
        </mxCell>
        <mxCell id="axlTO_v4iN-88vhWcISZ-20" style="rounded=0;orthogonalLoop=1;jettySize=auto;html=1;exitX=1;exitY=1;exitDx=0;exitDy=0;entryX=0.5;entryY=0;entryDx=0;entryDy=0;" edge="1" parent="1" source="axlTO_v4iN-88vhWcISZ-22" target="axlTO_v4iN-88vhWcISZ-34">
          <mxGeometry relative="1" as="geometry" />
        </mxCell>
        <mxCell id="axlTO_v4iN-88vhWcISZ-21" style="rounded=0;orthogonalLoop=1;jettySize=auto;html=1;exitX=0;exitY=1;exitDx=0;exitDy=0;entryX=0.5;entryY=0;entryDx=0;entryDy=0;" edge="1" parent="1" source="axlTO_v4iN-88vhWcISZ-22" target="axlTO_v4iN-88vhWcISZ-25">
          <mxGeometry relative="1" as="geometry" />
        </mxCell>
        <mxCell id="axlTO_v4iN-88vhWcISZ-22" value="20" style="ellipse;whiteSpace=wrap;html=1;fontSize=22;" vertex="1" parent="1">
          <mxGeometry x="520" y="70" width="50" height="50" as="geometry" />
        </mxCell>
        <mxCell id="axlTO_v4iN-88vhWcISZ-23" style="rounded=0;orthogonalLoop=1;jettySize=auto;html=1;exitX=0;exitY=1;exitDx=0;exitDy=0;entryX=0.5;entryY=0;entryDx=0;entryDy=0;" edge="1" parent="1" source="axlTO_v4iN-88vhWcISZ-25" target="axlTO_v4iN-88vhWcISZ-19">
          <mxGeometry relative="1" as="geometry" />
        </mxCell>
        <mxCell id="axlTO_v4iN-88vhWcISZ-24" style="rounded=0;orthogonalLoop=1;jettySize=auto;html=1;exitX=1;exitY=1;exitDx=0;exitDy=0;entryX=0.5;entryY=0;entryDx=0;entryDy=0;" edge="1" parent="1" source="axlTO_v4iN-88vhWcISZ-25" target="axlTO_v4iN-88vhWcISZ-27">
          <mxGeometry relative="1" as="geometry" />
        </mxCell>
        <mxCell id="axlTO_v4iN-88vhWcISZ-25" value="8" style="ellipse;whiteSpace=wrap;html=1;fontSize=22;" vertex="1" parent="1">
          <mxGeometry x="450" y="160" width="50" height="50" as="geometry" />
        </mxCell>
        <mxCell id="axlTO_v4iN-88vhWcISZ-26" style="rounded=0;orthogonalLoop=1;jettySize=auto;html=1;exitX=0;exitY=1;exitDx=0;exitDy=0;entryX=0.5;entryY=0;entryDx=0;entryDy=0;" edge="1" parent="1" source="axlTO_v4iN-88vhWcISZ-27" target="axlTO_v4iN-88vhWcISZ-30">
          <mxGeometry relative="1" as="geometry" />
        </mxCell>
        <mxCell id="axlTO_v4iN-88vhWcISZ-27" value="&lt;font color=&quot;#ff3333&quot;&gt;13&lt;/font&gt;" style="ellipse;whiteSpace=wrap;html=1;fontSize=22;" vertex="1" parent="1">
          <mxGeometry x="510" y="240" width="50" height="50" as="geometry" />
        </mxCell>
        <mxCell id="axlTO_v4iN-88vhWcISZ-28" style="rounded=0;orthogonalLoop=1;jettySize=auto;html=1;exitX=0;exitY=1;exitDx=0;exitDy=0;entryX=0.5;entryY=0;entryDx=0;entryDy=0;" edge="1" parent="1" source="axlTO_v4iN-88vhWcISZ-30" target="axlTO_v4iN-88vhWcISZ-31">
          <mxGeometry relative="1" as="geometry" />
        </mxCell>
        <mxCell id="axlTO_v4iN-88vhWcISZ-29" style="rounded=0;orthogonalLoop=1;jettySize=auto;html=1;exitX=1;exitY=1;exitDx=0;exitDy=0;entryX=0.5;entryY=0;entryDx=0;entryDy=0;" edge="1" parent="1" source="axlTO_v4iN-88vhWcISZ-30" target="axlTO_v4iN-88vhWcISZ-32">
          <mxGeometry relative="1" as="geometry" />
        </mxCell>
        <mxCell id="axlTO_v4iN-88vhWcISZ-30" value="10" style="ellipse;whiteSpace=wrap;html=1;fontSize=22;" vertex="1" parent="1">
          <mxGeometry x="450" y="330" width="50" height="50" as="geometry" />
        </mxCell>
        <mxCell id="axlTO_v4iN-88vhWcISZ-31" value="9" style="ellipse;whiteSpace=wrap;html=1;fontSize=22;" vertex="1" parent="1">
          <mxGeometry x="390" y="420" width="50" height="50" as="geometry" />
        </mxCell>
        <mxCell id="axlTO_v4iN-88vhWcISZ-32" value="14" style="ellipse;whiteSpace=wrap;html=1;fontSize=22;fontColor=#FF3333;" vertex="1" parent="1">
          <mxGeometry x="500" y="420" width="50" height="50" as="geometry" />
        </mxCell>
        <mxCell id="axlTO_v4iN-88vhWcISZ-33" value="16" style="ellipse;whiteSpace=wrap;html=1;fontSize=22;" vertex="1" parent="1">
          <mxGeometry x="570" y="330" width="50" height="50" as="geometry" />
        </mxCell>
        <mxCell id="axlTO_v4iN-88vhWcISZ-34" value="25" style="ellipse;whiteSpace=wrap;html=1;fontSize=22;" vertex="1" parent="1">
          <mxGeometry x="585" y="160" width="50" height="50" as="geometry" />
        </mxCell>
        <mxCell id="axlTO_v4iN-88vhWcISZ-35" style="rounded=0;orthogonalLoop=1;jettySize=auto;html=1;exitX=1;exitY=1;exitDx=0;exitDy=0;entryX=0.5;entryY=0;entryDx=0;entryDy=0;" edge="1" parent="1" source="axlTO_v4iN-88vhWcISZ-27" target="axlTO_v4iN-88vhWcISZ-33">
          <mxGeometry relative="1" as="geometry" />
        </mxCell>
      </root>
    </mxGraphModel>
  </diagram>
</mxfile>
